<?xml version="1.0" encoding="UTF-8" standalone="no"?>
<!-- Created with Inkscape (http://www.inkscape.org/) -->

<svg
   xmlns:dc="http://purl.org/dc/elements/1.1/"
   xmlns:cc="http://creativecommons.org/ns#"
   xmlns:rdf="http://www.w3.org/1999/02/22-rdf-syntax-ns#"
   xmlns:svg="http://www.w3.org/2000/svg"
   xmlns="http://www.w3.org/2000/svg"
   xmlns:sodipodi="http://sodipodi.sourceforge.net/DTD/sodipodi-0.dtd"
   xmlns:inkscape="http://www.inkscape.org/namespaces/inkscape"
   width="210mm"
   height="297mm"
   viewBox="0 0 210 297"
   version="1.1"
   id="svg8"
   inkscape:version="0.92.3 (2405546, 2018-03-11)"
   sodipodi:docname="decoupe-facade.svg">
  <defs
     id="defs2" />
  <sodipodi:namedview
     id="base"
     pagecolor="#ffffff"
     bordercolor="#666666"
     borderopacity="1.0"
     inkscape:pageopacity="0.0"
     inkscape:pageshadow="2"
     inkscape:zoom="0.98994949"
     inkscape:cx="298.15588"
     inkscape:cy="736.6923"
     inkscape:document-units="mm"
     inkscape:current-layer="layer1"
     showgrid="false"
     showguides="false"
     inkscape:guide-bbox="true"
     inkscape:snap-bbox="true"
     inkscape:snap-grids="false"
     inkscape:snap-nodes="true"
     inkscape:snap-center="true"
     inkscape:snap-object-midpoints="true"
     inkscape:bbox-nodes="true"
     inkscape:object-paths="true"
     inkscape:bbox-paths="true"
     inkscape:snap-bbox-edge-midpoints="true"
     inkscape:snap-bbox-midpoints="false"
     inkscape:window-width="1920"
     inkscape:window-height="991"
     inkscape:window-x="0"
     inkscape:window-y="36"
     inkscape:window-maximized="1">
    <sodipodi:guide
       position="100,205.61905"
       orientation="1,0"
       id="guide10"
       inkscape:locked="false"
       inkscape:label=""
       inkscape:color="rgb(0,0,255)" />
    <inkscape:grid
       type="xygrid"
       id="grid12" />
    <sodipodi:guide
       position="104.76965,236.58405"
       orientation="0,1"
       id="guide4529"
       inkscape:locked="false" />
    <sodipodi:guide
       position="64.999994,230.37649"
       orientation="1,0"
       id="guide4531"
       inkscape:locked="false" />
    <sodipodi:guide
       position="134.94571,236.52977"
       orientation="1,0"
       id="guide4533"
       inkscape:locked="false" />
    <sodipodi:guide
       position="64.999993,238.95841"
       orientation="0,1"
       id="guide4543"
       inkscape:locked="false" />
    <sodipodi:guide
       position="137.32007,208.26398"
       orientation="0,1"
       id="guide4545"
       inkscape:locked="false" />
    <sodipodi:guide
       position="62.625632,238.95842"
       orientation="1,0"
       id="guide4551"
       inkscape:locked="false" />
    <sodipodi:guide
       position="137.32007,238.95842"
       orientation="1,0"
       id="guide4553"
       inkscape:locked="false" />
    <sodipodi:guide
       position="64.999994,210.58405"
       orientation="0,1"
       id="guide4555"
       inkscape:locked="false" />
  </sodipodi:namedview>
  <metadata
     id="metadata5">
    <rdf:RDF>
      <cc:Work
         rdf:about="">
        <dc:format>image/svg+xml</dc:format>
        <dc:type
           rdf:resource="http://purl.org/dc/dcmitype/StillImage" />
        <dc:title></dc:title>
      </cc:Work>
    </rdf:RDF>
  </metadata>
  <g
     inkscape:label="Calque 1"
     inkscape:groupmode="layer"
     id="layer1">
    <path
       style="fill:#ff5fb3;fill-opacity:1;stroke:#000000;stroke-width:0.37795275;stroke-miterlimit:4;stroke-dasharray:none;stroke-opacity:1"
       d="m 377.95312,89.121094 c -141.52574,6e-6 -256.25585,114.730056 -256.25585,256.255856 3e-5,119.94574 83.2023,223.8427 200.24804,250.0586 l 111.52344,0.11133 C 550.75042,569.52062 634.207,465.5117 634.20703,345.37695 634.20703,203.85115 519.47891,89.121094 377.95312,89.121094 Z M 236.69531,207.57031 a 11.80014,11.800139 0 0 1 11.80078,11.79883 11.80014,11.800139 0 0 1 -11.80078,11.80078 11.80014,11.800139 0 0 1 -11.80078,-11.80078 11.80014,11.800139 0 0 1 11.80078,-11.79883 z m 282.31055,0 a 11.80014,11.800139 0 0 1 11.79883,11.79883 11.80014,11.800139 0 0 1 -11.79883,11.80078 11.80014,11.800139 0 0 1 -11.80078,-11.80078 11.80014,11.800139 0 0 1 11.80078,-11.79883 z M 245.875,228.54883 h 264.15625 v 97.85742 H 245.875 Z m -9.17969,95.03125 a 11.80014,11.800139 0 0 1 11.80078,11.80078 11.80014,11.800139 0 0 1 -11.80078,11.79883 11.80014,11.800139 0 0 1 -11.80078,-11.79883 11.80014,11.800139 0 0 1 11.80078,-11.80078 z m 282.31055,0 a 11.80014,11.800139 0 0 1 11.79883,11.80078 11.80014,11.800139 0 0 1 -11.79883,11.79883 11.80014,11.800139 0 0 1 -11.80078,-11.79883 11.80014,11.800139 0 0 1 11.80078,-11.80078 z"
       transform="scale(0.26458333)"
       id="path3717"
       inkscape:connector-curvature="0" />
  </g>
</svg>
